<svg width="53" height="55" viewBox="0 0 53 55" fill="none" xmlns="http://www.w3.org/2000/svg">
<g filter="url(#filter0_d)">
<path d="M32.339 22.3459C35.0254 22.3459 37.2043 20.1327 37.2043 17.4039C37.2043 14.675 35.0254 12.4561 32.339 12.4561H22.6028C19.9163 12.4561 17.7375 14.6692 17.7375 17.3981C17.7375 20.1269 19.9163 22.3401 22.6028 22.3401C19.9163 22.3459 17.7375 24.5591 17.7375 27.2879C17.7375 30.0167 19.9163 32.2299 22.6028 32.2299C19.9163 32.2299 17.7375 34.4431 17.7375 37.1777C17.7375 39.9123 19.9163 42.1197 22.6028 42.1197C25.2892 42.1197 27.468 39.9065 27.468 37.1777V22.3459H32.339ZM32.339 22.3459C29.6525 22.3459 27.4737 24.5591 27.4737 27.2879C27.4737 30.0167 29.6525 32.2299 32.339 32.2299C35.0254 32.2299 37.2043 30.0167 37.2043 27.2879C37.2043 24.5591 35.0254 22.3459 32.339 22.3459Z" fill="white"/>
</g>
<defs>
<filter id="filter0_d" x="15.7375" y="12.4561" width="27.4668" height="37.6637" filterUnits="userSpaceOnUse" color-interpolation-filters="sRGB">
<feFlood flood-opacity="0" result="BackgroundImageFix"/>
<feColorMatrix in="SourceAlpha" type="matrix" values="0 0 0 0 0 0 0 0 0 0 0 0 0 0 0 0 0 0 127 0"/>
<feOffset dx="2" dy="4"/>
<feGaussianBlur stdDeviation="2"/>
<feColorMatrix type="matrix" values="0 0 0 0 0.270588 0 0 0 0 0.345098 0 0 0 0 0.501961 0 0 0 0.2 0"/>
<feBlend mode="normal" in2="BackgroundImageFix" result="effect1_dropShadow"/>
<feBlend mode="normal" in="SourceGraphic" in2="effect1_dropShadow" result="shape"/>
</filter>
</defs>
</svg>
