<svg width="65" height="25" viewBox="0 0 65 25" fill="none" xmlns="http://www.w3.org/2000/svg">
<path fill-rule="evenodd" clip-rule="evenodd" d="M15.6699 4.3763V4.55444H19.7514V4.3763H15.6699ZM35.957 4.3763V4.55444H40.0385V1.15316H38.3486V4.3763H35.957ZM9.61363 16.9822C8.75023 18.1072 7.44205 18.8136 5.89839 18.8136C2.73258 18.8136 0.430176 16.3543 0.430176 12.3512C0.430176 8.47899 2.73258 5.83646 5.89839 5.83646C7.46821 5.83646 8.72407 6.51671 9.5613 7.64175V0.943848H13.512V18.4997H9.61363V16.9822ZM4.5902 12.5082C4.5902 14.8106 5.58442 15.831 7.15424 15.831C8.82872 15.831 9.71829 14.5751 9.71829 12.4297V12.1419C9.71829 9.99648 8.85488 8.81912 7.15424 8.81912C5.61059 8.81912 4.5902 9.94416 4.5902 12.2466V12.5082ZM15.7222 6.15042H19.6991V18.4997H15.7222V6.15042ZM32.9453 10.4936C32.9453 13.3454 30.7214 15.1507 27.2416 15.1507C26.509 15.1507 25.8288 15.0722 25.2009 14.8891C24.6514 14.9414 24.2851 15.2031 24.2851 15.5432C24.2851 15.9618 24.8346 16.2496 25.7241 16.2496H28.9423C32.736 16.2496 34.7768 17.6363 34.7768 20.1742C34.7768 22.9998 32.2651 24.5697 27.6864 24.5697C23.2386 24.5697 20.9885 23.3923 20.9885 21.1684C20.9885 19.9648 21.7734 19.0753 23.2124 18.552C22.0089 18.238 21.3025 17.4531 21.3025 16.4066C21.3025 15.36 22.0874 14.5228 23.4741 14.078C22.2967 13.2669 21.6164 12.0111 21.6164 10.5459C21.6164 7.85106 24.0497 5.86262 27.3986 5.86262C29.4917 5.86262 31.1923 6.6737 32.1342 7.98188C32.579 6.83068 33.4163 6.15042 34.6721 6.15042V9.60403C34.1227 9.36856 33.4163 9.34239 32.8668 9.76101C32.9191 9.99648 32.9453 10.232 32.9453 10.4936ZM31.5325 20.7759C31.5325 19.8602 30.6691 19.4677 28.5236 19.4677H26.1166C24.9131 19.5724 24.102 20.0433 24.102 20.8544C24.102 21.7178 25.3055 22.2149 27.7649 22.2149C30.1981 22.2149 31.5325 21.6917 31.5325 20.7759ZM25.227 10.5982C25.227 11.8279 26.0381 12.6129 27.3201 12.6129C28.6283 12.6129 29.4394 11.8541 29.4394 10.5721V10.4413C29.4394 9.21157 28.576 8.37434 27.3201 8.37434C26.0904 8.37434 25.227 9.23774 25.227 10.4413V10.5982ZM36.0093 6.15042H39.9862V18.4997H36.0093V6.15042ZM49.0724 15.5955V18.4997H46.142C43.578 18.3165 43.0809 17.1392 43.0285 14.9414V8.94994H41.3802V6.15042H43.0285V3.74336L46.9269 1.83341V6.15042H49.1509V8.94994H46.9008V14.7844C46.9008 15.3339 47.1624 15.5694 47.7118 15.5955H49.0724ZM61.1651 14.7059C61.1651 17.1392 58.9412 18.8921 55.9324 18.8921C53.2375 18.8921 51.3014 17.8979 49.9932 16.4851L52.4264 14.6013C53.2375 15.5432 54.441 16.1711 55.7492 16.1711C56.7696 16.1711 57.3975 15.7787 57.3975 15.0722C57.3975 14.3886 56.3991 14.1722 54.9956 13.8681C54.8415 13.8347 54.6826 13.8003 54.5195 13.7641C52.4526 13.3193 50.1763 12.4559 50.1763 9.91799C50.1763 7.56326 52.3741 5.83646 55.3044 5.83646C57.9208 5.83646 59.8046 6.80451 61.0604 8.26968C61.0604 8.32201 58.7057 10.0488 58.7057 10.0488C57.8685 9.10692 56.7434 8.53132 55.5137 8.53132C54.5195 8.53132 53.9178 8.92377 53.9178 9.57787C53.9178 10.3207 54.5949 10.4617 56.3912 10.8356L56.508 10.8599C58.6272 11.2785 61.1651 12.0896 61.1651 14.7059Z" fill="#1E266D"/>
<path d="M62.0372 17.1981C63.1274 17.1981 64.0112 16.3149 64.0112 15.2255C64.0112 14.1361 63.1274 13.2529 62.0372 13.2529C60.9469 13.2529 60.0631 14.1361 60.0631 15.2255C60.0631 16.3149 60.9469 17.1981 62.0372 17.1981Z" fill="#FF2E6A"/>
<path d="M62.0372 9.30773C63.1274 9.30773 64.0112 8.42457 64.0112 7.33514C64.0112 6.24571 63.1274 5.36255 62.0372 5.36255C60.9469 5.36255 60.0631 6.24571 60.0631 7.33514C60.0631 8.42457 60.9469 9.30773 62.0372 9.30773Z" fill="#FF2E6A"/>
</svg>
