<svg width="17" height="16" viewBox="0 0 17 16" fill="none" xmlns="http://www.w3.org/2000/svg">
<path d="M12.5093 1.74854H4.41396C3.00778 1.74854 1.86377 2.89142 1.86377 4.29655V6.9882V12.3861C1.86377 13.7913 3.00778 14.9341 4.41396 14.9341H12.5096C13.9158 14.9341 15.0595 13.7913 15.0595 12.3861V6.98793V4.29629C15.0592 2.89115 13.9155 1.74854 12.5093 1.74854ZM13.2408 3.26804L13.5325 3.26697V3.55715V5.50194L11.3033 5.50912L11.2956 3.27442L13.2408 3.26804ZM6.57821 6.98793C7.00089 6.40359 7.68655 6.02032 8.46164 6.02032C9.23673 6.02032 9.92239 6.40359 10.3445 6.98793C10.6195 7.36934 10.7843 7.83586 10.7843 8.3412C10.7843 9.6208 9.74139 10.6618 8.46137 10.6618C7.18055 10.6618 6.13876 9.6208 6.13876 8.3412C6.13902 7.83586 6.30325 7.36934 6.57821 6.98793ZM13.7736 12.3859C13.7736 13.083 13.2064 13.6492 12.5093 13.6492H4.41396C3.71659 13.6492 3.14938 13.083 3.14938 12.3859V6.98793H5.11905C4.94897 7.40604 4.85341 7.86272 4.85341 8.3412C4.85341 10.3288 6.47174 11.947 8.46164 11.947C10.4513 11.947 12.0696 10.3288 12.0696 8.3412C12.0696 7.86272 11.9735 7.40604 11.8034 6.98793H13.7736V12.3859Z" fill="#1E266D"/>
</svg>
