<svg width="16" height="15" viewBox="0 0 16 15" fill="none" xmlns="http://www.w3.org/2000/svg">
<g clip-path="url(#clip0)">
<path d="M15.6736 2.85451C15.1227 3.10155 14.5298 3.2682 13.9077 3.34277C14.5429 2.95916 15.0299 2.35151 15.2596 1.62663C14.6655 1.98232 14.0078 2.24042 13.3072 2.37974C12.7466 1.77701 11.9475 1.40015 11.0632 1.40015C9.36549 1.40015 7.98901 2.78883 7.98901 4.5019C7.98901 4.74465 8.01608 4.98126 8.06871 5.20867C5.51348 5.07916 3.24784 3.84454 1.73144 1.9679C1.46679 2.42578 1.3153 2.95854 1.3153 3.52752C1.3153 4.60348 1.85798 5.553 2.68295 6.10909C2.17921 6.09283 1.70497 5.95319 1.29035 5.72087C1.29005 5.73376 1.29005 5.74696 1.29005 5.76016C1.29005 7.2627 2.34986 8.51604 3.75645 8.80145C3.4985 8.87204 3.22685 8.91009 2.94639 8.91009C2.74805 8.91009 2.5555 8.89076 2.36781 8.85424C2.75931 10.0864 3.89456 10.9835 5.23971 11.0083C4.1875 11.8403 2.86212 12.3362 1.42146 12.3362C1.17354 12.3362 0.928667 12.3215 0.688049 12.2927C2.04901 13.1731 3.66489 13.6862 5.40093 13.6862C11.0562 13.6862 14.1483 8.96011 14.1483 4.86127C14.1483 4.72685 14.1456 4.59274 14.1398 4.45955C14.7403 4.02315 15.2617 3.47657 15.6736 2.85451Z" fill="#1E266D"/>
</g>
<defs>
<clipPath id="clip0">
<rect width="15.09" height="14.1364" fill="white" transform="translate(0.678711 0.406006)"/>
</clipPath>
</defs>
</svg>
