<svg width="16" height="16" viewBox="0 0 16 16" fill="none" xmlns="http://www.w3.org/2000/svg">
<g clip-path="url(#clip0)">
<path d="M8.18067 8.12934C8.24164 8.10914 8.30322 8.09107 8.36512 8.07301C8.24777 7.80756 8.11969 7.5415 7.9858 7.27881C5.57784 7.99953 3.26731 7.94748 3.18459 7.94442C3.18305 7.99463 3.1806 8.043 3.1806 8.09322C3.1806 9.29401 3.63376 10.3883 4.37892 11.2158C4.3783 11.2146 4.37708 11.2134 4.37708 11.2134C4.37708 11.2134 5.6572 8.94498 8.18067 8.12934Z" fill="#1E266D"/>
<path d="M7.5979 6.55969C6.78871 5.12254 5.92406 3.94991 5.86187 3.86694C4.55754 4.48234 3.58412 5.68313 3.28079 7.13039C3.40396 7.13161 5.35264 7.15611 7.5979 6.55969Z" fill="#1E266D"/>
<path d="M10.9456 4.58648C10.122 3.86117 9.04071 3.4209 7.85711 3.4209C7.47718 3.4209 7.10859 3.46682 6.7547 3.55194C6.82517 3.64593 7.70391 4.8106 8.5033 6.27837C10.2681 5.61674 10.9342 4.60363 10.9456 4.58648Z" fill="#1E266D"/>
<path d="M6.73819 3.55664C6.73234 3.55729 6.72747 3.55794 6.72162 3.56054C6.73104 3.55794 6.73689 3.55664 6.73689 3.55664H6.73819Z" fill="#1E266D"/>
<path d="M4.9825 11.7771L4.98342 11.7753C4.9488 11.7483 4.91203 11.7238 4.87802 11.6951C4.94022 11.7456 4.9825 11.7771 4.9825 11.7771Z" fill="#1E266D"/>
<path d="M8.86301 6.97426C8.97178 7.19745 9.07656 7.42402 9.1743 7.65181C9.20831 7.73386 9.24202 7.81377 9.2748 7.89398C10.8815 7.69191 12.4644 8.03207 12.5321 8.04584C12.5214 6.93782 12.1246 5.92134 11.4686 5.125C11.4594 5.13755 10.7097 6.22078 8.86301 6.97426Z" fill="#1E266D"/>
<path d="M8.65282 8.85782C5.89281 9.8195 4.99201 11.7569 4.98343 11.7753C5.77669 12.3941 6.77247 12.7661 7.8568 12.7661C8.50422 12.7661 9.1213 12.6344 9.68261 12.3959C9.61306 11.9875 9.34159 10.5564 8.68315 8.84741C8.67335 8.85139 8.66324 8.85445 8.65282 8.85782Z" fill="#1E266D"/>
<path d="M7.85712 0.554199C3.69014 0.554199 0.312134 3.93032 0.312134 8.09359C0.312134 12.2575 3.68983 15.6324 7.85712 15.6324C12.0241 15.6324 15.4021 12.2575 15.4021 8.09359C15.4021 3.93032 12.0238 0.554199 7.85712 0.554199ZM12.9022 10.2236C12.7653 10.5484 12.5952 10.861 12.3973 11.1528C12.2015 11.4428 11.9766 11.7149 11.7287 11.9626C11.4809 12.2097 11.2088 12.4344 10.9189 12.6307C10.6263 12.8282 10.3126 12.9978 9.9884 13.1353C9.6575 13.2746 9.31157 13.3817 8.95983 13.454C8.5989 13.5281 8.22785 13.5657 7.85681 13.5657C7.48577 13.5657 7.11472 13.5281 6.75379 13.454C6.40205 13.3817 6.05551 13.2746 5.72522 13.1353C5.40044 12.9978 5.087 12.8279 4.79439 12.6307C4.50485 12.4344 4.23215 12.2097 3.98459 11.9626C3.73671 11.7149 3.51182 11.4431 3.31603 11.1528C3.11841 10.861 2.94866 10.5481 2.81109 10.2236C2.67138 9.89294 2.56383 9.54728 2.49152 9.19518C2.41829 8.83452 2.38091 8.46436 2.38091 8.09359C2.38091 7.72282 2.41829 7.35205 2.49152 6.992C2.56383 6.6399 2.67138 6.29363 2.81109 5.96358C2.94866 5.63873 3.11871 5.32552 3.31603 5.03344C3.51182 4.7435 3.73671 4.47193 3.98459 4.22362C4.23215 3.97655 4.50454 3.75243 4.79439 3.55618C5.087 3.35839 5.40044 3.18847 5.72522 3.051C6.05551 2.91108 6.40205 2.80392 6.75379 2.73228C7.11472 2.6588 7.48577 2.62114 7.85681 2.62114C8.22785 2.62114 8.5989 2.6588 8.95983 2.73228C9.31157 2.80392 9.6575 2.91108 9.9884 3.051C10.3129 3.18847 10.6263 3.35839 10.9189 3.55618C11.2085 3.75243 11.4809 3.97655 11.7287 4.22362C11.9766 4.47193 12.2015 4.74319 12.3973 5.03344C12.5952 5.32522 12.7653 5.63873 12.9022 5.96358C13.0422 6.29363 13.1495 6.6399 13.2212 6.992C13.2953 7.35205 13.333 7.72282 13.333 8.09359C13.333 8.46436 13.2953 8.83452 13.2212 9.19518C13.1495 9.54728 13.0425 9.89294 12.9022 10.2236Z" fill="#1E266D"/>
<path d="M9.56006 8.63124C10.1735 10.3158 10.4223 11.6874 10.4704 11.9691C11.5201 11.2612 12.2661 10.137 12.4739 8.83454C12.3777 8.80361 11.0694 8.38967 9.56006 8.63124Z" fill="#1E266D"/>
</g>
<defs>
<clipPath id="clip0">
<rect width="15.09" height="15.0788" fill="white" transform="translate(0.574341 0.406006)"/>
</clipPath>
</defs>
</svg>
